<?xml version="1.0" encoding="utf-8"?>
<svg version="1.1" xmlns="http://www.w3.org/2000/svg" xmlns:xlink="http://www.w3.org/1999/xlink" x="0px" y="0px"
	 viewBox="0 0 94.9 119.8" enable-background="new 0 0 94.9 119.8" xml:space="preserve">
<g>
	<path d="M0.1,119.8l-0.1-2c0,0,3.4-0.2,8.8-1.3l0.4,2C3.7,119.5,0.3,119.8,0.1,119.8z M14.2,117.3l-0.5-1.9
		c2.9-0.7,5.7-1.6,8.5-2.6l0.7,1.9C20,115.6,17.1,116.5,14.2,117.3z M27.6,112.9l-0.7-1.9c2.8-1.1,5.5-2.4,8.1-3.7l0.9,1.8
		C33.2,110.5,30.4,111.7,27.6,112.9z M40.3,106.7l-1-1.7c2.6-1.5,5.1-3.1,7.5-4.8l1.2,1.6C45.5,103.5,43,105.2,40.3,106.7z M52,98.8
		l-1.2-1.6c2.3-1.8,4.6-3.8,6.7-5.9l1.4,1.4C56.7,94.8,54.4,96.9,52,98.8z M62.4,89.1l-1.5-1.3c2-2.2,3.9-4.5,5.6-6.9l1.6,1.2
		C66.3,84.5,64.4,86.9,62.4,89.1z M71,77.9l-1.7-1.1c1.6-2.5,3.1-5,4.5-7.7l1.8,0.9C74.2,72.8,72.7,75.4,71,77.9z M77.8,65.6
		L76,64.7c1.2-2.7,2.3-5.4,3.3-8.3l1.9,0.7C80.2,60,79,62.9,77.8,65.6z M82.7,52.4l-1.9-0.6c0.8-2.8,1.6-5.7,2.2-8.6l2,0.4
		C84.3,46.6,83.6,49.5,82.7,52.4z M85.9,38.6l-2-0.3c0.5-2.9,0.9-5.8,1.2-8.8l2,0.2C86.8,32.7,86.4,35.7,85.9,38.6z M87.5,24.6
		l-2-0.1c0.2-2.9,0.3-5.9,0.3-8.9l2,0C87.8,18.7,87.7,21.7,87.5,24.6z M85.8,10.6c-0.1-2.9-0.2-5.9-0.4-8.9l2-0.1
		c0.2,3,0.3,6.1,0.4,9L85.8,10.6z"/>
</g>
<g>
	<polygon points="79.8,10.2 78.3,9 85.9,0 94.9,7.6 93.6,9.1 86.1,2.8 	"/>
</g>
</svg>
